<?xml version="1.0" standalone="no"?><!DOCTYPE svg PUBLIC "-//W3C//DTD SVG 1.1//EN" "http://www.w3.org/Graphics/SVG/1.1/DTD/svg11.dtd"><svg t="1749384025737" class="icon" viewBox="0 0 1024 1024" version="1.1" xmlns="http://www.w3.org/2000/svg" p-id="7838" xmlns:xlink="http://www.w3.org/1999/xlink" width="128" height="128"><path d="M426.688 186.432v368.256H341.312V172.8l1.792-5.952c5.312-17.6 19.2-47.552 45.376-73.728A170.496 170.496 0 0 1 512 42.624c55.68 0 96.384 23.36 123.52 50.56 26.176 26.24 40.128 56.128 45.376 73.728l1.792 5.952v101.76H597.312V186.432a106.24 106.24 0 0 0-22.144-32.96A85.248 85.248 0 0 0 512 128c-29.632 0-49.408 11.712-63.168 25.472a106.24 106.24 0 0 0-22.144 32.96zM172.8 341.312h101.76v85.376H186.432a106.24 106.24 0 0 0-32.96 22.144A85.248 85.248 0 0 0 128 512c0 29.632 11.712 49.408 25.472 63.168 11.776 11.776 24.96 18.88 32.96 22.144h368.256v85.376H172.8l-5.952-1.792a185.792 185.792 0 0 1-73.728-45.376A170.496 170.496 0 0 1 42.624 512c0-55.68 23.36-96.384 50.56-123.52 26.176-26.176 56.128-40.064 73.728-45.376l5.952-1.792z m296.448 0H851.2l5.952 1.792c17.6 5.312 47.552 19.2 73.728 45.376 27.2 27.136 50.56 67.84 50.56 123.52 0 55.68-23.36 96.384-50.56 123.52-26.176 26.176-56.128 40.128-73.728 45.376l-5.952 1.792h-101.76V597.312h88.192a106.24 106.24 0 0 0 32.96-22.144C884.288 561.408 896 541.632 896 512c0-29.632-11.712-49.408-25.472-63.168a106.24 106.24 0 0 0-32.96-22.144H469.312V341.312z m213.376 128V851.2l-1.792 5.952c-5.248 17.6-19.2 47.552-45.376 73.728a170.496 170.496 0 0 1-123.52 50.56c-55.68 0-96.384-23.36-123.52-50.56a185.792 185.792 0 0 1-45.376-73.728l-1.792-5.952v-101.76h85.376v88.192c3.264 7.936 10.368 21.12 22.144 32.96 13.76 13.76 33.536 25.472 63.168 25.472 29.632 0 49.408-11.712 63.168-25.472a106.24 106.24 0 0 0 22.144-32.96V469.312h85.376z" p-id="7839" fill="#1296db"></path></svg>